<svg width="19" height="20" viewBox="0 0 19 20" fill="none" xmlns="http://www.w3.org/2000/svg">
<path d="M3.67743 5.97062C3.82891 4.60404 4.47906 3.34133 5.50345 2.42421C6.52784 1.5071 7.85449 1 9.22943 1C10.6044 1 11.931 1.5071 12.9554 2.42421C13.9798 3.34133 14.63 4.60404 14.7814 5.97062L15.0334 8.23662L15.0394 8.29362C15.1685 9.41764 15.5346 10.5015 16.1134 11.4736L16.1434 11.5236L16.7204 12.4866C17.2454 13.3606 17.5074 13.7976 17.4504 14.1566C17.4128 14.3949 17.2903 14.6116 17.1054 14.7666C16.8264 15.0006 16.3164 15.0006 15.2974 15.0006H3.16143C2.14143 15.0006 1.63143 15.0006 1.35343 14.7676C1.16804 14.6125 1.04512 14.3954 1.00743 14.1566C0.951435 13.7976 1.21343 13.3606 1.73743 12.4866L2.31643 11.5226L2.34643 11.4726C2.92479 10.5007 3.2905 9.41722 3.41943 8.29362L3.42543 8.23662L3.67743 5.97062Z" stroke="#4B5563" stroke-width="2"/>
<path d="M5.22943 15.001C5.22943 16.0618 5.65086 17.0793 6.401 17.8294C7.15115 18.5795 8.16857 19.001 9.22943 19.001C10.2903 19.001 11.3077 18.5795 12.0579 17.8294C12.808 17.0793 13.2294 16.0618 13.2294 15.001" stroke="#4B5563" stroke-width="2" stroke-linecap="round"/>
</svg>
