<svg width="24" height="24" viewBox="0 0 24 24" fill="none" xmlns="http://www.w3.org/2000/svg">
<path d="M6.448 7.97013C6.59947 6.60355 7.24963 5.34085 8.27402 4.42373C9.29841 3.50661 10.6251 2.99951 12 2.99951C13.375 2.99951 14.7016 3.50661 15.726 4.42373C16.7504 5.34085 17.4005 6.60355 17.552 7.97013L17.804 10.2361L17.81 10.2931C17.9391 11.4172 18.3052 12.501 18.884 13.4731L18.914 13.5231L19.491 14.4861C20.016 15.3601 20.278 15.7971 20.221 16.1561C20.1834 16.3944 20.0608 16.6111 19.876 16.7661C19.597 17.0001 19.087 17.0001 18.068 17.0001H5.932C4.912 17.0001 4.402 17.0001 4.124 16.7671C3.93861 16.612 3.81569 16.3949 3.778 16.1561C3.722 15.7971 3.984 15.3601 4.508 14.4861L5.087 13.5221L5.117 13.4721C5.69536 12.5002 6.06107 11.4167 6.19 10.2931L6.196 10.2361L6.448 7.97013Z" stroke="white" stroke-width="2"/>
<path d="M8 17C8 18.0609 8.42143 19.0783 9.17157 19.8284C9.92172 20.5786 10.9391 21 12 21C13.0609 21 14.0783 20.5786 14.8284 19.8284C15.5786 19.0783 16 18.0609 16 17" stroke="white" stroke-width="2" stroke-linecap="round"/>
</svg>
