<svg width="28" height="28" viewBox="0 0 28 28" fill="none" xmlns="http://www.w3.org/2000/svg">
<path d="M9.13385 18.8664C6.62483 16.3525 4.69529 13.3209 3.48019 9.98344C2.81169 8.15877 3.42419 6.15444 4.79852 4.7801L5.64902 3.93077C5.87767 3.70166 6.14926 3.51989 6.44825 3.39587C6.74724 3.27185 7.06775 3.20801 7.39144 3.20801C7.71512 3.20801 8.03563 3.27185 8.33462 3.39587C8.63361 3.51989 8.9052 3.70166 9.13385 3.93077L11.1254 5.92227C11.3545 6.15092 11.5362 6.42251 11.6603 6.7215C11.7843 7.02049 11.8481 7.341 11.8481 7.66469C11.8481 7.98838 11.7843 8.30889 11.6603 8.60787C11.5362 8.90686 11.3545 9.17845 11.1254 9.4071L10.6354 9.8971C10.4392 10.0932 10.2836 10.326 10.1775 10.5822C10.0713 10.8385 10.0167 11.1131 10.0167 11.3904C10.0167 11.6678 10.0713 11.9424 10.1775 12.1986C10.2836 12.4549 10.4392 12.6877 10.6354 12.8838L15.1154 17.3649C15.3114 17.5611 15.5443 17.7167 15.8005 17.8228C16.0567 17.929 16.3313 17.9836 16.6087 17.9836C16.886 17.9836 17.1607 17.929 17.4169 17.8228C17.6731 17.7167 17.9059 17.5611 18.102 17.3649L18.5932 16.8749C18.8218 16.6458 19.0934 16.4641 19.3924 16.34C19.6914 16.216 20.0119 16.1522 20.3356 16.1522C20.6593 16.1522 20.9798 16.216 21.2788 16.34C21.5778 16.4641 21.8494 16.6458 22.078 16.8749L24.0695 18.8664C24.2986 19.0951 24.4804 19.3667 24.6044 19.6657C24.7284 19.9647 24.7923 20.2852 24.7923 20.6089C24.7923 20.9325 24.7284 21.2531 24.6044 21.552C24.4804 21.851 24.2986 22.1226 24.0695 22.3513L23.2202 23.2006C21.8459 24.5761 19.8415 25.1886 18.0169 24.5201C14.6794 23.305 11.6477 21.3755 9.13385 18.8664Z" stroke="#4B5563" stroke-width="2" stroke-linejoin="round"/>
</svg>
