<svg width="28" height="28" viewBox="0 0 28 28" fill="none" xmlns="http://www.w3.org/2000/svg">
<path d="M6.125 21.875H22.4227C22.4227 21.875 21.875 22.75 21.875 23.625C21.875 24.5 22.4227 25.375 22.4227 25.375H8.75C8.05381 25.375 7.38613 25.0984 6.89384 24.6062C6.40156 24.1139 6.125 23.4462 6.125 22.75V21.875Z" fill="url(#paint0_linear_189_1892)"/>
<path d="M19.25 1.75H8.75C7.82174 1.75 6.9315 2.11875 6.27513 2.77513C5.61875 3.4315 5.25 4.32174 5.25 5.25V22.75C5.25 23.6783 5.61875 24.5685 6.27513 25.2249C6.9315 25.8813 7.82174 26.25 8.75 26.25H21.875C22.1071 26.25 22.3296 26.1578 22.4937 25.9937C22.6578 25.8296 22.75 25.6071 22.75 25.375C22.75 25.1429 22.6578 24.9204 22.4937 24.7563C22.3296 24.5922 22.1071 24.5 21.875 24.5H8.75C8.28587 24.5 7.84075 24.3156 7.51256 23.9874C7.18437 23.6592 7 23.2141 7 22.75V22.7447H21.875C22.1071 22.7447 22.3296 22.6526 22.4937 22.4885C22.6578 22.3244 22.75 22.1018 22.75 21.8697V5.25C22.75 4.32174 22.3813 3.4315 21.7249 2.77513C21.0685 2.11875 20.1783 1.75 19.25 1.75Z" fill="url(#paint1_linear_189_1892)"/>
<path d="M10.5 5.25C10.0359 5.25 9.59075 5.43437 9.26256 5.76256C8.93437 6.09075 8.75 6.53587 8.75 7V8.75C8.75 9.21413 8.93437 9.65925 9.26256 9.98744C9.59075 10.3156 10.0359 10.5 10.5 10.5H17.5C17.9641 10.5 18.4092 10.3156 18.7374 9.98744C19.0656 9.65925 19.25 9.21413 19.25 8.75V7C19.25 6.53587 19.0656 6.09075 18.7374 5.76256C18.4092 5.43437 17.9641 5.25 17.5 5.25H10.5Z" fill="url(#paint2_linear_189_1892)"/>
<defs>
<linearGradient id="paint0_linear_189_1892" x1="16.625" y1="24.5" x2="16.625" y2="21" gradientUnits="userSpaceOnUse">
<stop stop-color="#9DEAFF"/>
<stop offset="0.716" stop-color="#58AAFE"/>
</linearGradient>
<linearGradient id="paint1_linear_189_1892" x1="11.2875" y1="6.33325" x2="15.4892" y2="32.5867" gradientUnits="userSpaceOnUse">
<stop stop-color="#20AC9D"/>
<stop offset="1" stop-color="#2052CB"/>
</linearGradient>
<linearGradient id="paint2_linear_189_1892" x1="12.3707" y1="4.34875" x2="18.8597" y2="12.4233" gradientUnits="userSpaceOnUse">
<stop stop-color="#9FF0F9"/>
<stop offset="1" stop-color="#6CE0FF"/>
</linearGradient>
</defs>
</svg>
