<svg width="20" height="20" viewBox="0 0 20 20" fill="none" xmlns="http://www.w3.org/2000/svg">
<path d="M8.74 0.44681C9.09632 0.157755 9.54118 0 10 0C10.4588 0 10.9037 0.157755 11.26 0.44681L18.888 6.62681C19.2349 6.90769 19.5147 7.26243 19.707 7.66517C19.8994 8.0679 19.9995 8.50849 20 8.95481V18.0028C20 18.5332 19.7893 19.0419 19.4142 19.417C19.0391 19.7921 18.5304 20.0028 18 20.0028H14C13.4696 20.0028 12.9609 19.7921 12.5858 19.417C12.2107 19.0419 12 18.5332 12 18.0028V12.0028H8V18.0028C8 18.5332 7.78929 19.0419 7.41421 19.417C7.03914 19.7921 6.53043 20.0028 6 20.0028H2C1.46957 20.0028 0.960859 19.7921 0.585786 19.417C0.210714 19.0419 5.87179e-08 18.5332 5.87179e-08 18.0028V8.95681C-8.83736e-05 8.50981 0.0997121 8.06845 0.292106 7.66497C0.484499 7.2615 0.764623 6.90612 1.112 6.62481L8.74 0.44681ZM17.63 8.17881L10 2.00281L2.37 8.17881C2.25424 8.27272 2.16094 8.39131 2.09692 8.52592C2.03291 8.66053 1.99979 8.80775 2 8.95681V18.0028H6V12.0028C6 11.4724 6.21071 10.9637 6.58579 10.5886C6.96086 10.2135 7.46957 10.0028 8 10.0028H12C12.5304 10.0028 13.0391 10.2135 13.4142 10.5886C13.7893 10.9637 14 11.4724 14 12.0028V18.0028H18V8.95681C18.0002 8.80775 17.9671 8.66053 17.9031 8.52592C17.8391 8.39131 17.7458 8.27272 17.63 8.17881Z" fill="#143F90"/>
</svg>
