<svg width="20" height="20" viewBox="0 0 20 20" fill="none" xmlns="http://www.w3.org/2000/svg">
<path d="M9.16663 9.15047C9.16663 8.92945 9.25442 8.71749 9.4107 8.56121C9.56698 8.40493 9.77895 8.31713 9.99996 8.31713C10.221 8.31713 10.4329 8.40493 10.5892 8.56121C10.7455 8.71749 10.8333 8.92945 10.8333 9.15047V14.1505C10.8333 14.3715 10.7455 14.5834 10.5892 14.7397C10.4329 14.896 10.221 14.9838 9.99996 14.9838C9.77895 14.9838 9.56698 14.896 9.4107 14.7397C9.25442 14.5834 9.16663 14.3715 9.16663 14.1505V9.15047ZM9.99996 5.04297C9.77895 5.04297 9.56698 5.13077 9.4107 5.28705C9.25442 5.44333 9.16663 5.65529 9.16663 5.8763C9.16663 6.09732 9.25442 6.30928 9.4107 6.46556C9.56698 6.62184 9.77895 6.70964 9.99996 6.70964C10.221 6.70964 10.4329 6.62184 10.5892 6.46556C10.7455 6.30928 10.8333 6.09732 10.8333 5.8763C10.8333 5.65529 10.7455 5.44333 10.5892 5.28705C10.4329 5.13077 10.221 5.04297 9.99996 5.04297Z" fill="#9CA3AF"/>
<path fill-rule="evenodd" clip-rule="evenodd" d="M9.99996 1.66699C5.39746 1.66699 1.66663 5.39783 1.66663 10.0003C1.66663 14.6028 5.39746 18.3337 9.99996 18.3337C14.6025 18.3337 18.3333 14.6028 18.3333 10.0003C18.3333 5.39783 14.6025 1.66699 9.99996 1.66699ZM3.33329 10.0003C3.33329 11.7684 4.03567 13.4641 5.28591 14.7144C6.53616 15.9646 8.23185 16.667 9.99996 16.667C11.7681 16.667 13.4638 15.9646 14.714 14.7144C15.9642 13.4641 16.6666 11.7684 16.6666 10.0003C16.6666 8.23222 15.9642 6.53652 14.714 5.28628C13.4638 4.03604 11.7681 3.33366 9.99996 3.33366C8.23185 3.33366 6.53616 4.03604 5.28591 5.28628C4.03567 6.53652 3.33329 8.23222 3.33329 10.0003Z" fill="#9CA3AF"/>
</svg>
