<svg width="28" height="28" viewBox="0 0 28 28" fill="none" xmlns="http://www.w3.org/2000/svg">
<path d="M9.91663 8.75033C9.91663 7.56849 10.9608 6.41699 12.25 6.41699C13.5391 6.41699 14.5833 7.37366 14.5833 8.55549C14.5833 8.98133 14.448 9.37799 14.2135 9.71166C13.5158 10.7057 12.25 11.6518 12.25 12.8337" stroke="#4B5563" stroke-width="1.75" stroke-linecap="round"/>
<path d="M12.25 15.75H12.2605" stroke="#4B5563" stroke-width="2.33333" stroke-linecap="round" stroke-linejoin="round"/>
<path d="M9.33325 22.75C10.5583 23.765 12.0341 24.4113 13.7246 24.5222C15.0558 24.6097 16.4464 24.6097 17.7764 24.5222C18.2517 24.4893 18.7191 24.3839 19.1624 24.2095C19.6408 24.0147 19.8788 23.9178 20.0013 23.933C20.1226 23.947 20.2988 24.0753 20.6511 24.332C21.2729 24.7847 22.0558 25.109 23.2178 25.0822C23.8046 25.0682 24.0986 25.06 24.2293 24.8395C24.3611 24.6178 24.1978 24.3122 23.8699 23.6997C23.4149 22.8503 23.1279 21.8785 23.5643 21.0992C24.3144 19.9862 24.9526 18.669 25.0459 17.2457C25.0961 16.4815 25.0961 15.6893 25.0459 14.924C24.9851 14.0005 24.7607 13.0951 24.3833 12.25" stroke="#4B5563" stroke-width="1.75" stroke-linecap="round" stroke-linejoin="round"/>
<path d="M14.2764 19.8557C16.1645 19.7309 17.9428 18.924 19.28 17.5853C20.6172 16.2466 21.4221 14.4674 21.5448 12.5792C21.5961 11.815 21.5961 11.0229 21.5448 10.2575C21.4218 8.36957 20.6168 6.59067 19.2796 5.25221C17.9424 3.91374 16.1643 3.10698 14.2764 2.98221C12.9272 2.89525 11.5738 2.89525 10.2246 2.98221C8.33625 3.10671 6.55755 3.91348 5.21991 5.25219C3.88228 6.5909 3.07694 8.37025 2.95395 10.2587C2.90256 11.0317 2.90256 11.8073 2.95395 12.5804C3.04728 14.0037 3.68545 15.3209 4.43562 16.4327C4.87195 17.212 4.58378 18.1839 4.12995 19.0344C3.80328 19.6457 3.63995 19.9514 3.77062 20.173C3.90245 20.3947 4.19528 20.4005 4.78328 20.4157C5.94412 20.4437 6.72695 20.1182 7.34878 19.6655C7.70111 19.4089 7.87728 19.2805 7.99862 19.2665C8.11995 19.2525 8.36028 19.3482 8.83862 19.543C9.26795 19.718 9.76611 19.8254 10.2246 19.8557C11.5534 19.9432 12.9429 19.9432 14.2764 19.8557Z" stroke="#4B5563" stroke-width="1.75" stroke-linejoin="round"/>
</svg>
