<svg width="28" height="28" viewBox="0 0 28 28" fill="none" xmlns="http://www.w3.org/2000/svg">
<path opacity="0.5" d="M3.5 10.1619V19.6445C3.5 20.8614 3.5 21.4704 3.83017 21.9289C4.16033 22.3874 4.73783 22.5799 5.89283 22.9649L7.252 23.4175C8.84683 23.9495 9.64367 24.2155 10.4475 24.107L10.5 24.1V7.76669C10.3686 7.78626 10.2361 7.79834 10.1033 7.80286C9.47333 7.82502 8.85033 7.61619 7.6055 7.20202C5.9745 6.65835 5.159 6.38652 4.53833 6.66302C4.31839 6.76088 4.12099 6.90307 3.9585 7.08069C3.5 7.58352 3.5 8.44219 3.5 10.1619ZM24.5 17.8385V8.35702C24.5 7.14019 24.5 6.53119 24.1698 6.07269C23.8397 5.61419 23.2622 5.42169 22.1072 5.03669L20.748 4.58402C19.1532 4.05202 18.3563 3.78602 17.5525 3.89452L17.5 3.90036V20.2337C17.6322 20.2142 17.7644 20.2022 17.8967 20.1975C18.5267 20.1754 19.1497 20.3842 20.3945 20.7984C22.0255 21.342 22.841 21.6139 23.4617 21.3374C23.6816 21.2395 23.879 21.0973 24.0415 20.9197C24.5 20.4169 24.5 19.5582 24.5 17.8385Z" fill="#0275C9"/>
<path d="M4.48071 7.77383C4.32112 7.79462 4.16089 7.81271 4 7.82812V24C5.30395 23.8799 6.46972 23.419 8.7526 22.5157L11.4422 21.4506C13.2639 20.7298 14.1747 20.3694 15.1984 20.2262C15.3541 20.2031 15.5137 20.185 15.6772 20.1719V4C14.3732 4.11898 13.2074 4.58103 10.9246 5.48319L8.23492 6.54823C6.41328 7.26903 5.50246 7.62943 4.47876 7.77267" fill="#0275C9"/>
</svg>
