<svg width="24" height="24" viewBox="0 0 24 24" fill="none" xmlns="http://www.w3.org/2000/svg">
<path d="M17.667 21H6.333C6.023 21 5.868 21 5.741 20.957C5.396 20.842 5.127 20.505 5.034 20.073C5 19.915 5 19.722 5 19.334C5 18.559 5 18.172 5.068 17.854C5.253 16.991 5.792 16.317 6.482 16.086C6.737 16 7.047 16 7.667 16H16.333C16.953 16 17.263 16 17.518 16.085C18.208 16.316 18.747 16.99 18.932 17.853C19 18.171 19 18.558 19 19.333C19 19.721 19 19.915 18.966 20.073C18.873 20.505 18.604 20.842 18.259 20.957C18.132 21 17.977 21 17.667 21Z" stroke="#9CA3AF" stroke-width="1.5" stroke-miterlimit="10" stroke-linecap="round" stroke-linejoin="round"/>
<path d="M9.50001 16C10.015 13.452 10.085 11.966 9.75601 11.05C9.67634 10.854 9.57 10.6699 9.44001 10.503C8.62701 9.372 8.25801 8.488 8.11701 7.941C8.03815 7.61896 8.00682 7.28711 8.02401 6.956C8.07523 6.09286 8.37186 5.2623 8.87901 4.562C9.72901 3.372 11.313 3.007 12 3C12.688 3.007 14.313 3.373 15.163 4.562C15.6702 5.2623 15.9668 6.09286 16.018 6.956C16.032 7.286 16.007 7.621 15.925 7.941C15.785 8.488 15.415 9.371 14.602 10.503C14.472 10.6699 14.3657 10.854 14.286 11.05C13.958 11.966 13.986 13.452 14.5 16" stroke="#9CA3AF" stroke-width="1.5" stroke-linecap="round" stroke-linejoin="round"/>
<path d="M14 13H10" stroke="#9CA3AF" stroke-width="1.5" stroke-linecap="round"/>
</svg>
