<svg width="28" height="28" viewBox="0 0 28 28" fill="none" xmlns="http://www.w3.org/2000/svg">
<path d="M12.488 5.04565C12.6421 4.78127 12.8628 4.56191 13.1281 4.40945C13.3934 4.25699 13.694 4.17676 14 4.17676C14.306 4.17676 14.6066 4.25699 14.8719 4.40945C15.1372 4.56191 15.3579 4.78127 15.512 5.04565L17.633 8.68565C17.7551 8.89573 17.9196 9.07809 18.1161 9.2211C18.3125 9.36412 18.5366 9.46466 18.774 9.51631L22.8923 10.4076C23.1913 10.4726 23.4679 10.6149 23.6947 10.8201C23.9216 11.0254 24.0906 11.2865 24.185 11.5775C24.2795 11.8684 24.296 12.1791 24.2329 12.4784C24.1699 12.7778 24.0295 13.0553 23.8257 13.2835L21.0198 16.4253C20.858 16.6064 20.7356 16.8192 20.6605 17.0502C20.5854 17.2812 20.5591 17.5253 20.5835 17.767L21.007 21.9588C21.0379 22.2633 20.9883 22.5706 20.8634 22.8499C20.7384 23.1293 20.5423 23.371 20.2947 23.5509C20.0472 23.7309 19.7567 23.8427 19.4524 23.8753C19.1481 23.9079 18.8406 23.8602 18.5605 23.7368L14.7058 22.0381C14.4834 21.9401 14.2431 21.8895 14 21.8895C13.757 21.8895 13.5166 21.9401 13.2942 22.0381L9.4395 23.7368C9.15942 23.8602 8.85188 23.9079 8.54757 23.8753C8.24327 23.8427 7.95284 23.7309 7.70526 23.5509C7.45769 23.371 7.26163 23.1293 7.13665 22.8499C7.01167 22.5706 6.96214 22.2633 6.993 21.9588L7.4165 17.767C7.44102 17.5254 7.41499 17.2813 7.34007 17.0504C7.26516 16.8194 7.14299 16.6065 6.98134 16.4253L4.17434 13.2835C3.97055 13.0553 3.83013 12.7778 3.76707 12.4784C3.70402 12.1791 3.72053 11.8684 3.81496 11.5775C3.90939 11.2865 4.07844 11.0254 4.30526 10.8201C4.53208 10.6149 4.80875 10.4726 5.10767 10.4076L9.226 9.51631C9.46355 9.46494 9.68779 9.36465 9.88443 9.22183C10.0811 9.07902 10.2458 8.89681 10.3682 8.68681L12.488 5.04565Z" stroke="#4B5563" stroke-width="1.75" stroke-linecap="round" stroke-linejoin="round"/>
</svg>
