<svg width="19" height="24" viewBox="0 0 19 24" fill="none" xmlns="http://www.w3.org/2000/svg">
<path d="M2.33333 14V22.1667C2.33333 22.4972 2.22133 22.7745 1.99733 22.9985C1.77333 23.2225 1.49644 23.3341 1.16667 23.3333C0.836889 23.3326 0.56 23.2206 0.336 22.9973C0.112 22.7741 0 22.4972 0 22.1667V1.16667C0 0.836115 0.112 0.559226 0.336 0.336004C0.56 0.112782 0.836889 0.000781801 1.16667 4.02298e-06C1.49644 -0.000773755 1.77372 0.111226 1.9985 0.336004C2.22328 0.560782 2.33489 0.837671 2.33333 1.16667V2.33334H16.9458C17.3542 2.33334 17.675 2.50367 17.9083 2.84434C18.1417 3.185 18.1806 3.54939 18.025 3.9375L16.3333 8.16667L18.025 12.3958C18.1806 12.7847 18.1417 13.1495 17.9083 13.4902C17.675 13.8308 17.3542 14.0008 16.9458 14H2.33333ZM8.75 10.5C9.39167 10.5 9.94117 10.2717 10.3985 9.81517C10.8558 9.35861 11.0841 8.80911 11.0833 8.16667C11.0826 7.52423 10.8543 6.97511 10.3985 6.51934C9.94272 6.06356 9.39322 5.83489 8.75 5.83334C8.10678 5.83178 7.55767 6.06045 7.10267 6.51934C6.64767 6.97823 6.419 7.52734 6.41667 8.16667C6.41433 8.806 6.643 9.3555 7.10267 9.81517C7.56233 10.2748 8.11144 10.5031 8.75 10.5Z" fill="#05A552"/>
</svg>
